<?xml version="1.0" standalone="no"?>
<!DOCTYPE svg PUBLIC "-//W3C//DTD SVG 20010904//EN"
 "http://www.w3.org/TR/2001/REC-SVG-20010904/DTD/svg10.dtd">
<svg version="1.0" xmlns="http://www.w3.org/2000/svg"
 width="700.000000pt" height="700.000000pt" viewBox="0 0 700.000000 700.000000"
 preserveAspectRatio="xMidYMid meet">
<metadata>
Created by potrace 1.14, written by Peter Selinger 2001-2017
</metadata>
<g transform="translate(0.000000,700.000000) scale(0.100000,-0.100000)"
fill="#000000" stroke="none">
<path d="M4688 6981 c-92 -30 -134 -59 -308 -215 -19 -17 -57 -51 -85 -75 -27
-24 -77 -67 -110 -96 -33 -29 -231 -202 -440 -385 -209 -182 -409 -358 -445
-389 -36 -32 -126 -111 -200 -175 -74 -65 -162 -142 -195 -171 -33 -29 -78
-67 -100 -86 -22 -19 -42 -37 -45 -40 -3 -3 -120 -106 -260 -228 -140 -123
-282 -247 -315 -276 -33 -29 -193 -168 -355 -310 -162 -142 -326 -285 -364
-319 -125 -110 -151 -132 -181 -158 -187 -161 -306 -272 -332 -311 -116 -172
-100 -387 41 -544 53 -58 157 -117 233 -131 28 -5 387 -9 805 -10 414 0 765
-1 780 -1 25 -1 26 -2 13 -28 -7 -16 -93 -215 -190 -443 -97 -228 -185 -433
-195 -455 -9 -22 -37 -85 -60 -140 -24 -55 -51 -118 -61 -140 -120 -271 -551
-1291 -558 -1325 -33 -142 12 -293 119 -400 134 -134 346 -167 509 -79 46 24
255 197 386 318 17 16 86 77 155 136 69 60 130 113 136 119 11 11 92 81 179
156 28 24 52 46 55 49 3 3 34 31 70 61 36 30 67 58 70 61 3 3 64 57 135 119
72 62 159 138 195 170 36 32 108 94 160 139 52 46 111 97 130 115 19 17 69 61
110 96 41 35 80 69 85 75 6 5 37 33 70 60 33 28 65 55 70 61 6 7 119 107 253
223 134 116 258 224 275 240 18 16 111 97 207 181 96 83 189 164 205 180 17
15 66 58 110 96 44 38 96 83 115 100 19 18 93 82 163 143 267 232 291 256 327
309 67 102 90 232 61 350 -37 151 -163 274 -321 314 -45 11 -201 14 -837 14
-431 -1 -783 3 -783 7 0 5 235 556 521 1225 287 669 530 1242 540 1274 18 56
20 167 5 231 -31 131 -149 257 -283 304 -71 24 -195 26 -265 4z"/>
</g>
</svg>
