<svg xmlns="http://www.w3.org/2000/svg" xmlns:xlink="http://www.w3.org/1999/xlink" width="16" zoomAndPan="magnify" viewBox="0 0 375 374.999991" height="16" preserveAspectRatio="xMidYMid meet" version="1.0"><defs><clipPath id="23521afc6e"><path d="M 0 187.5 L 187.5 187.5 L 187.5 375 L 0 375 Z M 0 187.5 " clip-rule="nonzero"/></clipPath><clipPath id="ffdb125884"><path d="M 118.445312 118.527344 L 187.492188 118.527344 L 187.492188 187.496094 L 118.445312 187.496094 Z M 118.445312 118.527344 " clip-rule="nonzero"/></clipPath><clipPath id="92968e2b46"><path d="M 187.492188 187.496094 L 256.539062 187.496094 L 256.539062 256.464844 L 187.492188 256.464844 Z M 187.492188 187.496094 " clip-rule="nonzero"/></clipPath><clipPath id="40aae75984"><path d="M 0 0 L 197 0 L 197 188 L 0 188 Z M 0 0 " clip-rule="nonzero"/></clipPath><clipPath id="7d71c86cfd"><path d="M 148.015625 -56.792969 L 196.839844 -7.96875 L 1.355469 187.511719 L -47.464844 138.691406 Z M 148.015625 -56.792969 " clip-rule="nonzero"/></clipPath><clipPath id="bae12ea441"><path d="M 148.015625 -56.792969 L 196.839844 -7.96875 L 1.367188 187.503906 L -47.457031 138.679688 Z M 148.015625 -56.792969 " clip-rule="nonzero"/></clipPath><clipPath id="eefc1e907e"><path d="M 187 180 L 375 180 L 375 375 L 187 375 Z M 187 180 " clip-rule="nonzero"/></clipPath><clipPath id="169ce03fad"><path d="M 382.96875 180.257812 L 431.792969 229.078125 L 236.308594 424.5625 L 187.484375 375.738281 Z M 382.96875 180.257812 " clip-rule="nonzero"/></clipPath><clipPath id="0d713d3e7b"><path d="M 382.96875 180.257812 L 431.792969 229.078125 L 236.320312 424.550781 L 187.496094 375.726562 Z M 382.96875 180.257812 " clip-rule="nonzero"/></clipPath></defs><g clip-path="url(#23521afc6e)"><path fill="#000000" d="M 0 187.5 L 187.5 187.5 L 187.5 375 L 0 375 Z M 0 187.5 " fill-opacity="1" fill-rule="nonzero"/></g><g clip-path="url(#ffdb125884)"><path fill="#000000" d="M 187.492188 118.527344 L 187.492188 187.496094 L 118.523438 187.496094 L 118.523438 118.527344 Z M 187.492188 118.527344 " fill-opacity="1" fill-rule="nonzero"/></g><g clip-path="url(#92968e2b46)"><path fill="#000000" d="M 256.539062 187.496094 L 256.539062 256.464844 L 187.570312 256.464844 L 187.570312 187.496094 Z M 256.539062 187.496094 " fill-opacity="1" fill-rule="nonzero"/></g><g clip-path="url(#40aae75984)"><g clip-path="url(#7d71c86cfd)"><g clip-path="url(#bae12ea441)"><path fill="#000000" d="M 148.015625 -56.792969 L 196.839844 -7.96875 L 1.355469 187.511719 L -47.464844 138.691406 Z M 148.015625 -56.792969 " fill-opacity="1" fill-rule="nonzero"/></g></g></g><g clip-path="url(#eefc1e907e)"><g clip-path="url(#169ce03fad)"><g clip-path="url(#0d713d3e7b)"><path fill="#000000" d="M 382.96875 180.257812 L 431.792969 229.078125 L 236.308594 424.5625 L 187.484375 375.738281 Z M 382.96875 180.257812 " fill-opacity="1" fill-rule="nonzero"/></g></g></g></svg>